# xmcd
#
# Track frame offsets:
# 150
# 25447
# 48847
# 80813
#
# Disc length: 1404 seconds
#
#
# Revision: 0
# Processed by: cddbd v1.5.2PL0 Copyright (c) Steve Scherf et al.
# Submitted via: FreeRIP 2.943 
#
DISCID=2c057a04
DTITLE=Scumchrist - Fire in the Manger [ep]
DYEAR=2006
DGENRE=Anime
TTITLE0=Family
TTITLE1=Fire in the Manger
TTITLE2=Piss Flower
TTITLE3=Crank Hag
EXTD=spread by z
EXTT0=
EXTT1=
EXTT2=
EXTT3=
PLAYORDER=
